<svg xmlns="http://www.w3.org/2000/svg" viewBox="0 0 513 481" width="513" height="481" role="img" aria-label="Vidhyaan"><path fill="#FFFFFF" fill-rule="evenodd" d="M237.5 1.0L273.0 0.5L274.0 1.5L284.0 1.5L285.0 2.5L292.0 2.5L293.0 3.5L304.0 4.5L305.0 5.5L309.0 5.5L310.0 6.5L313.0 6.5L314.0 7.5L317.0 7.5L318.0 8.5L325.0 9.5L326.0 10.5L328.0 10.5L332.0 12.5L338.0 13.5L341.0 15.5L346.0 16.5L349.0 18.5L351.0 18.5L354.0 20.5L356.0 20.5L361.0 23.5L363.0 23.5L377.0 30.5L379.0 32.5L384.0 34.5L386.0 36.5L389.0 37.5L391.0 39.5L394.0 40.5L396.0 42.5L400.0 44.5L403.0 47.5L404.0 47.5L410.0 52.5L411.0 52.5L420.0 60.5L421.0 60.5L428.0 67.5L429.0 67.5L443.5 82.0L443.5 83.0L450.5 90.0L450.5 91.0L455.5 96.0L455.5 97.0L464.5 108.0L464.5 109.0L472.5 120.0L476.5 128.0L478.5 130.0L490.5 154.0L490.5 156.0L492.5 159.0L492.5 161.0L494.5 164.0L494.5 166.0L496.5 169.0L496.5 171.0L497.5 172.0L497.5 174.0L498.5 175.0L498.5 177.0L500.5 181.0L500.5 184.0L502.5 188.0L502.5 191.0L503.5 192.0L503.5 195.0L504.5 196.0L504.5 199.0L505.5 200.0L505.5 203.0L506.5 204.0L507.5 214.0L508.5 215.0L508.5 221.0L509.5 222.0L509.5 229.0L510.5 230.0L510.5 242.0L511.5 243.0L511.5 269.0L510.5 270.0L510.5 282.0L509.5 283.0L509.5 290.0L508.5 291.0L508.5 297.0L507.5 298.0L506.5 308.0L505.5 309.0L504.5 317.0L503.5 318.0L503.5 321.0L501.5 325.0L501.5 328.0L500.5 329.0L500.5 331.0L499.5 332.0L499.5 334.0L498.5 335.0L498.5 337.0L497.5 338.0L495.5 346.0L493.5 349.0L493.5 351.0L491.5 354.0L491.5 356.0L488.5 361.0L488.5 363.0L481.5 377.0L479.5 379.0L477.5 384.0L475.5 386.0L474.5 389.0L472.5 391.0L471.5 394.0L469.5 396.0L467.5 400.0L464.5 403.0L464.5 404.0L456.5 414.0L456.5 415.0L451.5 420.0L451.5 421.0L444.5 428.0L444.5 429.0L420.0 452.5L419.0 452.5L406.0 463.5L405.0 463.5L391.0 473.5L388.0 474.5L386.0 476.5L382.0 478.5L380.5 475.0L378.5 473.0L376.5 468.0L374.5 466.0L372.5 461.0L370.5 459.0L368.5 454.0L366.5 452.0L365.5 449.0L369.0 446.5L372.0 445.5L374.0 443.5L377.0 442.5L379.0 440.5L380.0 440.5L383.0 437.5L387.0 435.5L395.0 428.5L396.0 428.5L402.0 422.5L403.0 422.5L422.5 403.0L422.5 402.0L427.5 397.0L427.5 396.0L431.5 392.0L431.5 391.0L437.5 384.0L437.5 383.0L443.5 375.0L444.5 372.0L446.5 370.0L447.5 367.0L449.5 365.0L459.5 345.0L459.5 343.0L463.5 335.0L463.5 333.0L466.5 327.0L466.5 324.0L467.5 323.0L467.5 321.0L469.5 317.0L469.5 314.0L470.5 313.0L470.5 310.0L471.5 309.0L471.5 306.0L472.5 305.0L472.5 302.0L473.5 301.0L474.5 291.0L475.5 290.0L475.5 284.0L476.5 283.0L476.5 274.0L477.5 273.0L477.5 240.0L476.5 239.0L476.5 230.0L475.5 229.0L474.5 217.0L473.5 216.0L473.5 212.0L472.5 211.0L472.5 207.0L471.5 206.0L471.5 203.0L470.5 202.0L469.5 195.0L468.5 194.0L468.5 192.0L467.5 191.0L467.5 189.0L466.5 188.0L466.5 186.0L465.5 185.0L463.5 177.0L461.5 174.0L461.5 172.0L446.5 142.0L444.5 140.0L444.5 139.0L442.5 137.0L442.5 136.0L440.5 134.0L436.5 127.0L430.5 120.0L430.5 119.0L421.5 109.0L421.5 108.0L404.0 90.5L403.0 90.5L392.0 80.5L391.0 80.5L384.0 74.5L383.0 74.5L375.0 68.5L372.0 67.5L370.0 65.5L367.0 64.5L365.0 62.5L345.0 52.5L343.0 52.5L338.0 49.5L336.0 49.5L330.0 46.5L328.0 46.5L327.0 45.5L325.0 45.5L321.0 43.5L318.0 43.5L314.0 41.5L311.0 41.5L310.0 40.5L307.0 40.5L306.0 39.5L302.0 39.5L301.0 38.5L298.0 38.5L297.0 37.5L292.0 37.5L291.0 36.5L285.0 36.5L284.0 35.5L276.0 35.5L275.0 34.5L236.0 34.5L235.0 35.5L227.0 35.5L226.0 36.5L220.0 36.5L219.0 37.5L214.0 37.5L213.0 38.5L210.0 38.5L209.0 39.5L205.0 39.5L204.0 40.5L197.0 41.5L193.0 43.5L190.0 43.5L189.0 44.5L187.0 44.5L186.0 45.5L178.0 47.5L170.0 51.5L168.0 51.5L146.0 62.5L144.0 64.5L136.0 68.5L134.0 70.5L127.0 74.5L124.0 77.5L123.0 77.5L120.0 80.5L119.0 80.5L115.0 84.5L114.0 84.5L109.0 89.5L108.0 89.5L88.5 109.0L88.5 110.0L83.5 115.0L83.5 116.0L79.5 120.0L79.5 121.0L73.5 128.0L73.5 129.0L67.5 137.0L66.5 140.0L64.5 142.0L63.5 145.0L61.5 147.0L51.5 167.0L51.5 169.0L47.5 177.0L47.5 179.0L46.5 180.0L46.5 182.0L45.5 183.0L45.5 185.0L44.5 186.0L44.5 188.0L43.5 189.0L43.5 191.0L41.5 195.0L41.5 198.0L39.5 202.0L39.5 206.0L38.5 207.0L37.5 215.0L36.5 216.0L36.5 221.0L35.5 222.0L35.5 228.0L34.5 229.0L34.5 237.0L33.5 238.0L33.5 274.0L34.5 275.0L34.5 283.0L35.5 284.0L36.5 296.0L37.5 297.0L37.5 301.0L38.5 302.0L38.5 306.0L39.5 307.0L40.5 314.0L42.5 318.0L42.5 321.0L43.5 322.0L43.5 324.0L44.5 325.0L46.5 333.0L48.5 336.0L48.5 338.0L50.5 341.0L50.5 343.0L54.5 350.0L54.5 352.0L57.5 358.0L59.5 360.0L62.5 367.0L64.5 369.0L65.5 372.0L67.5 374.0L67.5 375.0L69.5 377.0L69.5 378.0L71.5 380.0L75.5 387.0L78.5 390.0L78.5 391.0L87.5 401.0L87.5 402.0L109.0 423.5L110.0 423.5L115.0 428.5L116.0 428.5L120.0 432.5L121.0 432.5L124.0 435.5L128.0 437.5L131.0 440.5L132.0 440.5L134.0 442.5L137.0 443.5L142.0 447.5L147.0 449.5L148.5 451.0L141.5 465.0L139.5 467.0L135.5 476.0L132.0 480.5L128.0 477.5L123.0 475.5L121.0 473.5L120.0 473.5L118.0 471.5L117.0 471.5L115.0 469.5L114.0 469.5L112.0 467.5L105.0 463.5L92.0 452.5L91.0 452.5L85.0 446.5L84.0 446.5L65.5 428.0L65.5 427.0L58.5 420.0L58.5 419.0L47.5 406.0L47.5 405.0L37.5 391.0L36.5 388.0L34.5 386.0L31.5 379.0L29.5 377.0L22.5 363.0L22.5 361.0L19.5 356.0L19.5 354.0L17.5 351.0L17.5 349.0L15.5 346.0L14.5 341.0L11.5 335.0L11.5 332.0L10.5 331.0L10.5 329.0L8.5 325.0L8.5 322.0L7.5 321.0L7.5 318.0L6.5 317.0L6.5 314.0L5.5 313.0L5.5 309.0L4.5 308.0L4.5 304.0L3.5 303.0L3.5 299.0L2.5 298.0L2.5 292.0L1.5 291.0L1.5 284.0L0.5 283.0L0.5 272.0L-0.5 271.0L-0.5 242.0L0.5 241.0L0.5 229.0L1.5 228.0L1.5 221.0L2.5 220.0L3.5 209.0L4.5 208.0L4.5 204.0L5.5 203.0L5.5 199.0L6.5 198.0L7.5 191.0L9.5 187.0L9.5 184.0L10.5 183.0L10.5 181.0L11.5 180.0L11.5 178.0L12.5 177.0L12.5 175.0L13.5 174.0L15.5 166.0L17.5 163.0L17.5 161.0L19.5 158.0L19.5 156.0L23.5 149.0L23.5 147.0L29.5 135.0L31.5 133.0L33.5 128.0L35.5 126.0L36.5 123.0L38.5 121.0L39.5 118.0L41.5 116.0L43.5 112.0L46.5 109.0L46.5 108.0L54.5 98.0L54.5 97.0L59.5 92.0L59.5 91.0L82.0 67.5L83.0 67.5L90.0 60.5L91.0 60.5L96.0 55.5L97.0 55.5L104.0 49.5L105.0 49.5L111.0 44.5L112.0 44.5L117.0 40.5L120.0 39.5L125.0 35.5L130.0 33.5L132.0 31.5L150.0 22.5L152.0 22.5L157.0 19.5L159.0 19.5L162.0 17.5L167.0 16.5L170.0 14.5L172.0 14.5L173.0 13.5L175.0 13.5L179.0 11.5L182.0 11.5L186.0 9.5L189.0 9.5L190.0 8.5L193.0 8.5L194.0 7.5L197.0 7.5L198.0 6.5L201.0 6.5L202.0 5.5L206.0 5.5L207.0 4.5L212.0 4.5L213.0 3.5L218.0 3.5L219.0 2.5L226.0 2.5L227.0 1.5L237.5 1.0ZM250.5 142.0L260.0 141.5L261.0 142.5L266.0 142.5L267.0 143.5L270.0 143.5L273.0 145.5L275.0 145.5L279.0 147.5L281.0 149.5L285.0 151.5L292.5 159.0L292.5 160.0L296.5 165.0L299.5 171.0L299.5 173.0L301.5 177.0L301.5 181.0L302.5 182.0L302.5 196.0L301.5 197.0L301.5 201.0L298.5 207.0L298.5 209.0L293.5 216.0L293.5 217.0L283.0 227.5L282.0 227.5L280.0 229.5L274.0 232.5L272.0 232.5L268.0 234.5L265.0 234.5L264.0 235.5L247.0 235.5L246.0 234.5L243.0 234.5L242.0 233.5L237.0 232.5L228.0 227.5L216.5 216.0L215.5 213.0L212.5 209.0L212.5 207.0L209.5 201.0L209.5 197.0L208.5 196.0L208.5 181.0L209.5 180.0L209.5 177.0L210.5 176.0L211.5 171.0L215.5 163.0L218.5 160.0L218.5 159.0L226.0 151.5L227.0 151.5L232.0 147.5L238.0 144.5L240.0 144.5L241.0 143.5L250.5 142.0ZM252.0 161.5L251.0 162.5L248.0 162.5L247.0 163.5L245.0 163.5L241.0 165.5L238.0 168.5L237.0 168.5L232.5 174.0L229.5 180.0L229.5 183.0L228.5 184.0L228.5 194.0L229.5 195.0L229.5 198.0L233.5 205.0L242.0 212.5L246.0 214.5L248.0 214.5L249.0 215.5L262.0 215.5L272.0 210.5L279.5 202.0L280.5 198.0L281.5 197.0L281.5 195.0L282.5 194.0L282.5 184.0L281.5 183.0L281.5 180.0L278.5 174.0L270.0 165.5L266.0 163.5L264.0 163.5L263.0 162.5L260.0 162.5L259.0 161.5L252.0 161.5ZM141.5 187.0L144.0 186.5L145.5 188.0L152.5 203.0L154.5 205.0L160.5 218.0L162.5 220.0L177.5 250.0L179.5 252.0L185.5 265.0L187.5 267.0L193.5 280.0L195.5 282.0L202.5 297.0L204.5 299.0L210.5 312.0L212.5 314.0L218.5 327.0L220.5 329.0L227.5 344.0L229.5 346.0L235.5 359.0L237.5 361.0L243.5 374.0L245.5 376.0L252.5 391.0L254.5 393.0L256.0 396.5L257.5 395.0L262.5 384.0L264.5 382.0L270.5 369.0L272.5 367.0L278.5 354.0L280.5 352.0L295.5 322.0L297.5 320.0L303.5 307.0L305.5 305.0L320.5 275.0L322.5 273.0L328.5 260.0L331.5 256.0L331.0 254.5L330.0 254.5L328.0 252.5L327.0 252.5L325.0 250.5L324.0 250.5L322.0 248.5L321.0 248.5L319.0 246.5L318.0 246.5L316.0 244.5L315.0 244.5L313.0 242.5L306.0 238.5L301.5 234.0L300.5 232.0L300.5 225.0L304.5 218.0L308.0 214.5L310.0 214.5L311.0 213.5L317.0 213.5L321.0 215.5L344.0 231.5L368.0 186.5L370.0 186.5L384.0 193.5L386.0 195.5L393.0 198.5L394.5 200.0L379.5 230.0L377.5 232.0L371.5 245.0L369.5 247.0L370.0 248.5L371.0 248.5L373.0 250.5L374.0 250.5L376.0 252.5L377.0 252.5L379.0 254.5L380.0 254.5L382.0 256.5L389.0 260.5L392.5 264.0L394.5 268.0L394.5 274.0L393.5 276.0L386.0 284.5L384.0 285.5L378.0 285.5L374.0 283.5L360.0 273.5L357.0 272.5L355.5 274.0L346.5 292.0L344.5 294.0L338.5 307.0L336.5 309.0L329.5 324.0L327.5 326.0L321.5 339.0L319.5 341.0L313.5 354.0L311.5 356.0L304.5 371.0L302.5 373.0L296.5 386.0L294.5 388.0L288.5 401.0L286.5 403.0L279.5 418.0L277.5 420.0L271.5 433.0L269.5 435.0L268.5 438.0L267.0 439.5L245.0 439.5L242.5 436.0L235.5 421.0L233.5 419.0L227.5 406.0L225.5 404.0L219.5 391.0L217.5 389.0L210.5 374.0L208.5 372.0L202.5 359.0L200.5 357.0L194.5 344.0L192.5 342.0L185.5 327.0L183.5 325.0L177.5 312.0L175.5 310.0L169.5 297.0L167.5 295.0L160.5 280.0L158.5 278.0L152.5 265.0L150.5 263.0L144.5 250.0L142.5 248.0L135.5 233.0L133.5 231.0L127.5 218.0L125.5 216.0L119.5 203.0L117.5 201.0L117.5 200.0L121.0 197.5L136.0 190.5L138.0 188.5L141.5 187.0Z"></path></svg>