<svg xmlns="http://www.w3.org/2000/svg" viewBox="0 0 2285 481" width="2285" height="481" role="img" aria-label="Vidhyaan"><path fill="#FFFFFF" fill-rule="evenodd" d="M225.8 1.7L283.3 0.8L285.0 2.5L295.0 2.5L296.7 4.2L305.0 4.2L306.7 5.8L311.7 5.8L313.3 7.5L320.0 7.5L321.7 9.2L325.0 9.2L331.7 12.5L336.7 12.5L341.7 15.8L350.0 17.5L358.3 22.5L361.7 22.5L375.0 29.2L378.3 32.5L386.7 35.8L390.0 39.2L395.0 40.8L400.0 45.8L413.3 54.2L421.7 62.5L423.3 62.5L457.5 98.3L457.5 100.0L462.5 105.0L462.5 106.7L475.8 125.0L490.8 155.0L490.8 158.3L497.5 171.7L497.5 176.7L500.8 181.7L500.8 186.7L502.5 188.3L502.5 193.3L504.2 195.0L504.2 200.0L505.8 201.7L505.8 208.3L507.5 210.0L509.2 231.7L510.8 233.3L510.8 278.3L509.2 280.0L509.2 291.7L507.5 293.3L505.8 311.7L502.5 318.3L500.8 330.0L499.2 331.7L495.8 345.0L492.5 350.0L492.5 353.3L487.5 361.7L487.5 365.0L480.8 378.3L477.5 381.7L470.8 395.0L459.2 410.0L459.2 411.7L440.8 431.7L440.8 433.3L438.3 434.2L431.7 442.5L430.0 442.5L410.0 460.8L381.7 479.2L377.5 473.3L372.5 461.7L369.2 458.3L365.8 450.0L370.0 445.8L375.0 444.2L391.7 430.8L393.3 430.8L420.8 405.0L420.8 403.3L435.8 386.7L435.8 385.0L445.8 371.7L452.5 356.7L455.8 353.3L455.8 350.0L464.2 333.3L464.2 330.0L467.5 323.3L467.5 318.3L470.8 311.7L470.8 306.7L472.5 305.0L474.2 288.3L475.8 286.7L475.8 273.3L477.5 271.7L477.5 241.7L475.8 240.0L475.8 225.0L474.2 223.3L474.2 216.7L472.5 215.0L470.8 200.0L467.5 193.3L465.8 183.3L459.2 170.0L459.2 166.7L444.2 138.3L427.5 116.7L427.5 115.0L396.7 84.2L395.0 84.2L388.3 77.5L386.7 77.5L368.3 64.2L333.3 47.5L330.0 47.5L328.3 45.8L325.0 45.8L313.3 40.8L306.7 40.8L305.0 39.2L291.7 37.5L290.0 35.8L278.3 35.8L276.7 34.2L233.3 34.2L231.7 35.8L220.0 35.8L218.3 37.5L211.7 37.5L210.0 39.2L205.0 39.2L203.3 40.8L196.7 40.8L195.0 42.5L176.7 47.5L171.7 50.8L168.3 50.8L136.7 67.5L133.3 70.8L121.7 77.5L115.0 84.2L113.3 84.2L84.2 113.3L84.2 115.0L77.5 121.7L77.5 123.3L69.2 133.3L62.5 146.7L59.2 150.0L50.8 166.7L50.8 170.0L47.5 175.0L47.5 178.3L45.8 180.0L45.8 183.3L40.8 195.0L39.2 206.7L37.5 208.3L35.8 225.0L34.2 226.7L34.2 240.0L32.5 241.7L32.5 270.0L34.2 271.7L34.2 285.0L35.8 286.7L35.8 296.7L37.5 298.3L39.2 311.7L40.8 313.3L42.5 323.3L45.8 328.3L49.2 341.7L62.5 368.3L65.8 371.7L70.8 381.7L80.8 393.3L80.8 395.0L106.7 422.5L108.3 422.5L123.3 435.8L147.5 451.7L142.5 463.3L139.2 466.7L134.2 478.3L131.7 480.8L125.0 477.5L121.7 474.2L116.7 472.5L93.3 454.2L91.7 454.2L57.5 420.0L57.5 418.3L50.8 411.7L47.5 405.0L42.5 400.0L37.5 390.0L34.2 386.7L30.8 378.3L27.5 375.0L25.8 368.3L22.5 365.0L22.5 361.7L17.5 353.3L15.8 345.0L10.8 335.0L10.8 330.0L9.2 328.3L7.5 318.3L5.8 316.7L5.8 311.7L4.2 310.0L2.5 293.3L0.8 291.7L0.8 278.3L-0.8 276.7L-0.8 235.0L0.8 233.3L2.5 210.0L4.2 208.3L4.2 203.3L5.8 201.7L7.5 188.3L9.2 186.7L15.8 163.3L19.2 158.3L19.2 155.0L37.5 120.0L54.2 98.3L54.2 96.7L60.8 90.0L60.8 88.3L86.7 62.5L88.3 62.5L103.3 49.2L105.0 49.2L123.3 35.8L131.7 32.5L135.0 29.2L148.3 22.5L151.7 22.5L160.0 17.5L168.3 15.8L173.3 12.5L178.3 12.5L190.0 7.5L196.7 7.5L198.3 5.8L205.0 5.8L206.7 4.2L225.8 1.7ZM877.5 108.3L891.7 107.5L898.3 110.8L905.8 118.3L909.2 125.0L909.2 141.7L905.8 148.3L900.0 154.2L888.3 159.2L880.0 159.2L878.3 157.5L871.7 155.8L864.2 150.0L859.2 140.0L859.2 125.0L862.5 118.3L870.0 110.8L877.5 108.3ZM1102.5 118.3L1142.5 118.3L1142.5 378.3L1103.3 379.2L1101.7 350.8L1086.7 365.8L1085.0 365.8L1076.7 372.5L1070.0 374.2L1060.0 379.2L1055.0 379.2L1053.3 380.8L1043.3 380.8L1041.7 382.5L1028.3 382.5L1026.7 380.8L1016.7 380.8L1015.0 379.2L1005.0 377.5L1000.0 374.2L993.3 372.5L990.0 369.2L985.0 367.5L980.0 362.5L978.3 362.5L960.8 343.3L950.8 325.0L950.8 321.7L947.5 315.0L947.5 310.0L945.8 308.3L945.8 301.7L944.2 300.0L944.2 261.7L945.8 260.0L945.8 253.3L947.5 251.7L949.2 241.7L952.5 236.7L954.2 230.0L957.5 226.7L962.5 216.7L980.0 199.2L1000.0 187.5L1003.3 187.5L1010.0 184.2L1015.0 184.2L1016.7 182.5L1025.0 182.5L1026.7 180.8L1043.3 180.8L1045.0 182.5L1053.3 182.5L1055.0 184.2L1060.0 184.2L1073.3 190.8L1080.0 192.5L1083.3 195.8L1090.0 199.2L1101.7 210.8L1102.5 118.3ZM1195.8 118.3L1235.8 118.3L1236.7 205.8L1246.7 195.8L1265.0 185.8L1275.0 184.2L1276.7 182.5L1286.7 182.5L1288.3 180.8L1305.0 180.8L1306.7 182.5L1320.0 184.2L1321.7 185.8L1325.0 185.8L1336.7 190.8L1340.0 194.2L1341.7 194.2L1357.5 210.0L1367.5 228.3L1367.5 231.7L1370.8 238.3L1370.8 246.7L1372.5 248.3L1371.7 379.2L1332.5 378.3L1332.5 255.0L1330.8 253.3L1330.8 248.3L1327.5 243.3L1325.8 236.7L1313.3 224.2L1305.0 219.2L1301.7 219.2L1300.0 217.5L1293.3 217.5L1291.7 215.8L1276.7 215.8L1275.0 217.5L1270.0 217.5L1268.3 219.2L1260.0 220.8L1244.2 235.0L1239.2 245.0L1237.5 255.0L1235.8 256.7L1235.8 378.3L1195.8 378.3L1195.8 118.3ZM600.8 135.0L641.7 134.2L644.2 136.7L647.5 148.3L649.2 150.0L649.2 153.3L650.8 155.0L650.8 158.3L652.5 160.0L652.5 163.3L655.8 168.3L659.2 181.7L662.5 186.7L669.2 210.0L672.5 215.0L677.5 233.3L680.8 238.3L687.5 261.7L690.8 266.7L694.2 280.0L697.5 285.0L702.5 303.3L705.8 308.3L705.8 311.7L707.5 313.3L707.5 316.7L709.2 318.3L709.2 321.7L715.0 335.8L717.5 333.3L722.5 315.0L725.8 310.0L729.2 296.7L732.5 291.7L737.5 273.3L740.8 268.3L747.5 245.0L750.8 240.0L752.5 231.7L755.8 226.7L762.5 203.3L765.8 198.3L769.2 185.0L772.5 180.0L772.5 176.7L774.2 175.0L777.5 161.7L780.8 156.7L780.8 153.3L782.5 151.7L782.5 148.3L784.2 146.7L787.5 135.0L829.2 135.0L825.8 148.3L822.5 153.3L820.8 161.7L817.5 166.7L815.8 175.0L812.5 180.0L810.8 188.3L807.5 193.3L805.8 201.7L802.5 206.7L800.8 215.0L797.5 220.0L795.8 228.3L792.5 233.3L790.8 241.7L787.5 246.7L785.8 255.0L782.5 260.0L780.8 268.3L777.5 273.3L775.8 281.7L772.5 286.7L770.8 295.0L767.5 300.0L765.8 308.3L762.5 313.3L760.8 321.7L757.5 326.7L755.8 335.0L752.5 340.0L750.8 348.3L747.5 353.3L745.8 361.7L742.5 366.7L742.5 370.0L738.3 379.2L693.3 379.2L690.8 376.7L690.8 373.3L687.5 368.3L685.8 360.0L682.5 355.0L680.8 346.7L677.5 341.7L675.8 333.3L672.5 328.3L670.8 320.0L667.5 315.0L667.5 311.7L662.5 301.7L660.8 293.3L657.5 288.3L655.8 280.0L649.2 266.7L645.8 253.3L639.2 240.0L637.5 231.7L634.2 226.7L632.5 218.3L629.2 213.3L627.5 205.0L624.2 200.0L622.5 191.7L619.2 186.7L617.5 178.3L614.2 173.3L612.5 165.0L605.8 151.7L605.8 148.3L600.8 138.3L600.8 135.0ZM250.8 141.7L258.3 140.8L260.0 142.5L266.7 142.5L281.7 149.2L297.5 166.7L297.5 170.0L300.8 175.0L300.8 180.0L302.5 181.7L302.5 195.0L300.8 196.7L300.8 201.7L292.5 218.3L280.0 229.2L270.0 234.2L265.0 234.2L263.3 235.8L246.7 235.8L245.0 234.2L240.0 234.2L225.0 225.8L214.2 213.3L209.2 201.7L209.2 196.7L207.5 195.0L207.5 181.7L209.2 180.0L212.5 166.7L215.8 163.3L215.8 161.7L228.3 149.2L238.3 144.2L250.8 141.7ZM255.0 160.8L253.3 162.5L246.7 162.5L240.0 165.8L232.5 173.3L227.5 185.0L227.5 191.7L229.2 193.3L229.2 198.3L230.8 201.7L238.3 210.8L250.0 215.8L261.7 215.8L271.7 210.8L277.5 205.0L282.5 193.3L282.5 185.0L280.8 183.3L280.8 178.3L270.0 165.8L263.3 162.5L256.7 162.5L255.0 160.8ZM1697.5 181.7L1715.0 180.8L1716.7 182.5L1726.7 182.5L1728.3 184.2L1738.3 185.8L1761.7 199.2L1773.3 210.8L1775.0 184.2L1814.2 185.0L1813.3 379.2L1775.0 379.2L1773.3 350.8L1769.2 355.0L1769.2 356.7L1758.3 365.8L1756.7 365.8L1748.3 372.5L1741.7 374.2L1736.7 377.5L1726.7 379.2L1725.0 380.8L1713.3 380.8L1711.7 382.5L1688.3 380.8L1686.7 379.2L1681.7 379.2L1671.7 374.2L1668.3 374.2L1655.0 365.8L1640.8 353.3L1640.8 351.7L1630.8 340.0L1622.5 323.3L1622.5 320.0L1619.2 313.3L1619.2 308.3L1617.5 306.7L1617.5 298.3L1615.8 296.7L1615.8 263.3L1617.5 261.7L1617.5 255.0L1619.2 253.3L1619.2 248.3L1620.8 246.7L1622.5 238.3L1635.8 215.0L1650.0 200.8L1668.3 189.2L1671.7 189.2L1681.7 184.2L1697.5 181.7ZM1937.5 181.7L1955.0 180.8L1956.7 182.5L1965.0 182.5L1966.7 184.2L1976.7 185.8L2000.0 199.2L2011.7 210.8L2013.3 184.2L2052.5 185.0L2051.7 379.2L2013.3 379.2L2011.7 350.8L2010.8 353.3L1995.0 367.5L1990.0 369.2L1983.3 374.2L1980.0 374.2L1970.0 379.2L1965.0 379.2L1963.3 380.8L1951.7 380.8L1950.0 382.5L1940.0 382.5L1938.3 380.8L1920.0 379.2L1893.3 365.8L1874.2 346.7L1874.2 345.0L1867.5 336.7L1857.5 313.3L1855.8 296.7L1854.2 295.0L1854.2 266.7L1855.8 265.0L1855.8 255.0L1857.5 253.3L1857.5 248.3L1862.5 238.3L1862.5 235.0L1867.5 225.0L1875.8 215.0L1875.8 213.3L1895.0 195.8L1915.0 185.8L1925.0 184.2L1926.7 182.5L1937.5 181.7ZM2195.8 181.7L2213.3 180.8L2215.0 182.5L2223.3 182.5L2225.0 184.2L2235.0 185.8L2251.7 194.2L2258.3 200.8L2260.0 200.8L2269.2 211.7L2277.5 226.7L2277.5 230.0L2280.8 236.7L2280.8 243.3L2282.5 245.0L2282.5 260.0L2284.2 261.7L2284.2 376.7L2281.7 379.2L2244.2 378.3L2244.2 263.3L2242.5 261.7L2242.5 251.7L2240.8 250.0L2240.8 246.7L2232.5 231.7L2221.7 222.5L2210.0 217.5L2205.0 217.5L2203.3 215.8L2188.3 215.8L2186.7 217.5L2180.0 217.5L2178.3 219.2L2175.0 219.2L2163.3 225.8L2152.5 238.3L2149.2 250.0L2147.5 251.7L2147.5 260.0L2145.8 261.7L2145.8 378.3L2106.7 379.2L2105.8 185.0L2145.0 184.2L2146.7 205.8L2156.7 195.8L2175.0 185.8L2185.0 184.2L2186.7 182.5L2195.8 181.7ZM864.2 185.0L904.2 185.0L903.3 379.2L864.2 378.3L864.2 185.0ZM1400.8 185.0L1445.8 185.0L1449.2 191.7L1450.8 200.0L1454.2 205.0L1457.5 218.3L1460.8 223.3L1462.5 231.7L1465.8 236.7L1469.2 250.0L1472.5 255.0L1474.2 263.3L1477.5 268.3L1480.8 281.7L1484.2 286.7L1487.5 300.0L1490.8 305.0L1492.5 313.3L1495.8 318.3L1495.8 321.7L1500.0 330.8L1502.5 328.3L1502.5 325.0L1505.8 320.0L1507.5 311.7L1510.8 306.7L1510.8 303.3L1514.2 298.3L1515.8 290.0L1519.2 285.0L1519.2 281.7L1525.8 268.3L1527.5 260.0L1530.8 255.0L1532.5 246.7L1535.8 241.7L1537.5 233.3L1544.2 220.0L1545.8 211.7L1549.2 206.7L1549.2 203.3L1552.5 198.3L1555.8 186.7L1558.3 184.2L1597.5 185.0L1597.5 188.3L1594.2 193.3L1590.8 205.0L1585.8 213.3L1582.5 225.0L1572.5 245.0L1572.5 248.3L1569.2 253.3L1565.8 265.0L1560.8 273.3L1557.5 285.0L1547.5 305.0L1545.8 313.3L1540.8 321.7L1540.8 325.0L1530.8 345.0L1530.8 348.3L1527.5 353.3L1524.2 365.0L1519.2 373.3L1515.8 385.0L1510.8 393.3L1507.5 405.0L1502.5 413.3L1502.5 416.7L1497.5 425.0L1497.5 428.3L1494.2 433.3L1494.2 436.7L1490.8 441.7L1490.8 445.0L1485.8 453.3L1485.8 456.7L1480.0 469.2L1439.2 468.3L1440.8 461.7L1445.8 453.3L1449.2 441.7L1454.2 433.3L1454.2 430.0L1462.5 413.3L1462.5 410.0L1465.8 405.0L1465.8 401.7L1470.8 393.3L1470.8 390.0L1475.8 381.7L1477.5 375.0L1472.5 365.0L1472.5 361.7L1467.5 351.7L1467.5 348.3L1462.5 340.0L1462.5 336.7L1457.5 326.7L1457.5 323.3L1452.5 315.0L1450.8 306.7L1447.5 301.7L1447.5 298.3L1444.2 293.3L1444.2 290.0L1440.8 285.0L1440.8 281.7L1437.5 276.7L1437.5 273.3L1434.2 268.3L1430.8 256.7L1422.5 240.0L1420.8 231.7L1412.5 215.0L1410.8 206.7L1405.8 198.3L1405.8 195.0L1400.8 185.0ZM142.5 186.7L143.3 185.8L147.5 191.7L147.5 195.0L150.8 198.3L159.2 216.7L162.5 220.0L172.5 241.7L175.8 245.0L187.5 270.0L190.8 273.3L202.5 298.3L205.8 301.7L214.2 320.0L217.5 323.3L217.5 326.7L220.8 330.0L230.8 351.7L234.2 355.0L255.0 395.8L257.5 395.0L264.2 380.0L267.5 376.7L277.5 355.0L280.8 351.7L280.8 348.3L284.2 345.0L292.5 326.7L295.8 323.3L307.5 298.3L310.8 295.0L322.5 270.0L325.8 266.7L330.8 256.7L330.0 254.2L328.3 254.2L318.3 245.8L308.3 240.8L300.8 233.3L299.2 226.7L302.5 220.0L308.3 214.2L318.3 214.2L343.3 230.8L345.8 228.3L350.8 216.7L354.2 213.3L364.2 191.7L368.3 185.8L394.2 200.0L375.8 236.7L372.5 240.0L369.2 246.7L370.0 249.2L386.7 259.2L394.2 266.7L394.2 273.3L390.8 280.0L383.3 285.8L378.3 285.8L371.7 282.5L358.3 272.5L354.2 275.0L332.5 318.3L329.2 321.7L320.8 340.0L317.5 343.3L317.5 346.7L314.2 350.0L304.2 371.7L300.8 375.0L290.8 396.7L287.5 400.0L275.8 425.0L272.5 428.3L269.2 436.7L266.7 439.2L245.0 439.2L242.5 436.7L225.8 403.3L222.5 400.0L210.8 375.0L207.5 371.7L197.5 350.0L194.2 346.7L184.2 325.0L180.8 321.7L169.2 296.7L165.8 293.3L155.8 271.7L152.5 268.3L140.8 243.3L137.5 240.0L125.8 215.0L122.5 211.7L117.5 201.7L117.5 200.0L123.3 195.8L142.5 186.7ZM1036.7 215.8L1035.0 217.5L1028.3 217.5L1026.7 219.2L1023.3 219.2L1013.3 224.2L997.5 238.3L997.5 240.0L990.8 248.3L990.8 251.7L987.5 256.7L987.5 261.7L985.8 263.3L985.8 273.3L984.2 275.0L984.2 286.7L985.8 288.3L985.8 298.3L987.5 300.0L989.2 310.0L995.8 321.7L1006.7 334.2L1023.3 344.2L1036.7 345.8L1038.3 347.5L1048.3 347.5L1050.0 345.8L1063.3 344.2L1073.3 339.2L1076.7 335.8L1078.3 335.8L1092.5 320.0L1100.8 300.0L1100.8 291.7L1102.5 290.0L1102.5 271.7L1100.8 270.0L1100.8 263.3L1099.2 261.7L1097.5 253.3L1092.5 243.3L1078.3 227.5L1058.3 217.5L1053.3 217.5L1051.7 215.8L1036.7 215.8ZM1708.3 215.8L1706.7 217.5L1695.0 219.2L1685.0 224.2L1680.0 229.2L1678.3 229.2L1665.8 243.3L1660.8 253.3L1659.2 263.3L1657.5 265.0L1657.5 296.7L1659.2 298.3L1660.8 308.3L1667.5 321.7L1683.3 337.5L1691.7 342.5L1695.0 342.5L1701.7 345.8L1720.0 347.5L1721.7 345.8L1730.0 345.8L1745.0 339.2L1748.3 335.8L1750.0 335.8L1765.8 318.3L1767.5 311.7L1770.8 306.7L1770.8 303.3L1772.5 301.7L1772.5 295.0L1774.2 293.3L1774.2 270.0L1772.5 268.3L1772.5 261.7L1770.8 260.0L1770.8 256.7L1765.8 245.0L1748.3 225.8L1743.3 224.2L1740.0 220.8L1736.7 220.8L1730.0 217.5L1725.0 217.5L1723.3 215.8L1708.3 215.8ZM1946.7 215.8L1945.0 217.5L1940.0 217.5L1938.3 219.2L1930.0 220.8L1916.7 229.2L1909.2 236.7L1909.2 238.3L1902.5 246.7L1900.8 253.3L1897.5 258.3L1897.5 263.3L1895.8 265.0L1895.8 295.0L1897.5 296.7L1897.5 303.3L1900.8 308.3L1900.8 311.7L1904.2 318.3L1921.7 337.5L1940.0 345.8L1958.3 347.5L1960.0 345.8L1968.3 345.8L1970.0 344.2L1973.3 344.2L1986.7 337.5L2000.8 323.3L2010.8 303.3L2010.8 296.7L2012.5 295.0L2012.5 268.3L2010.8 266.7L2010.8 260.0L2009.2 258.3L2009.2 255.0L2004.2 245.0L1986.7 225.8L1981.7 224.2L1978.3 220.8L1975.0 220.8L1968.3 217.5L1963.3 217.5L1961.7 215.8L1946.7 215.8Z"></path></svg>